<svg xmlns="http://www.w3.org/2000/svg" xmlns:xlink="http://www.w3.org/1999/xlink" width="2000" zoomAndPan="magnify" viewBox="170 590 1160 230" height="230" preserveAspectRatio="xMinYMid meet" version="1.0"><defs><g/><clipPath id="4986c8b1ae"><path d="M 181.574219 603.511719 L 990.074219 603.511719 L 990.074219 749.761719 L 181.574219 749.761719 Z M 181.574219 603.511719 " clip-rule="nonzero"/></clipPath></defs><g clip-path="url(#4986c8b1ae)"><path fill="#000000" d="M 990.074219 749.75 L 198.109375 749.75 C 188.992188 749.75 181.574219 742.34375 181.574219 733.246094 L 181.574219 648.324219 C 181.574219 639.226562 188.992188 631.820312 198.109375 631.820312 L 226.460938 631.820312 C 232.96875 631.820312 238.28125 626.519531 238.28125 620.027344 C 238.28125 610.929688 245.699219 603.523438 254.8125 603.523438 L 339.902344 603.523438 C 349.019531 603.523438 356.4375 610.929688 356.4375 620.027344 C 356.4375 626.519531 361.75 631.820312 368.257812 631.820312 L 396.609375 631.820312 C 405.726562 631.820312 413.144531 639.226562 413.144531 648.324219 L 413.144531 664.824219 L 408.429688 664.824219 L 408.429688 648.324219 C 408.429688 641.828125 403.117188 636.527344 396.609375 636.527344 L 368.289062 636.527344 C 359.171875 636.527344 351.753906 629.125 351.753906 620.027344 C 351.753906 613.53125 346.441406 608.230469 339.933594 608.230469 L 254.84375 608.230469 C 248.339844 608.230469 243.027344 613.53125 243.027344 620.027344 C 243.027344 629.125 235.609375 636.527344 226.492188 636.527344 L 198.109375 636.527344 C 191.601562 636.527344 186.289062 641.828125 186.289062 648.324219 L 186.289062 733.246094 C 186.289062 739.742188 191.601562 745.042969 198.109375 745.042969 L 990.042969 745.042969 L 990.042969 749.75 Z M 336.195312 690.078125 C 336.195312 668.714844 318.78125 651.335938 297.375 651.335938 C 275.96875 651.335938 258.554688 668.714844 258.554688 690.078125 C 258.554688 711.445312 275.96875 728.824219 297.375 728.824219 C 318.78125 728.824219 336.195312 711.445312 336.195312 690.078125 Z M 331.449219 690.078125 C 331.449219 708.839844 316.171875 724.085938 297.375 724.085938 C 278.578125 724.085938 263.300781 708.839844 263.300781 690.078125 C 263.300781 671.320312 278.578125 656.074219 297.375 656.074219 C 316.171875 656.074219 331.449219 671.351562 331.449219 690.078125 Z M 235.609375 660.464844 C 235.609375 655.445312 231.519531 651.335938 226.460938 651.335938 C 221.429688 651.335938 217.3125 655.414062 217.3125 660.464844 C 217.3125 665.484375 221.398438 669.59375 226.460938 669.59375 C 231.519531 669.59375 235.609375 665.515625 235.609375 660.464844 Z M 230.894531 660.464844 C 230.894531 662.878906 228.914062 664.855469 226.492188 664.855469 C 224.070312 664.855469 222.089844 662.878906 222.089844 660.464844 C 222.089844 658.046875 224.070312 656.074219 226.492188 656.074219 C 228.914062 656.074219 230.894531 658.046875 230.894531 660.464844 Z M 230.894531 660.464844 " fill-opacity="1" fill-rule="nonzero"/></g><g fill="#000000" fill-opacity="1"><g transform="translate(232.381887, 804.562591)"><g><path d="M 2.28125 0 L 2.28125 -26.8125 L 12.671875 -26.8125 C 14.398438 -26.8125 15.90625 -26.546875 17.1875 -26.015625 C 18.476562 -25.492188 19.484375 -24.65625 20.203125 -23.5 C 20.929688 -22.351562 21.296875 -20.84375 21.296875 -18.96875 C 21.296875 -17.09375 20.929688 -15.582031 20.203125 -14.4375 C 19.484375 -13.289062 18.476562 -12.453125 17.1875 -11.921875 C 15.90625 -11.398438 14.398438 -11.140625 12.671875 -11.140625 L 4.875 -11.140625 L 4.875 0 Z M 4.875 -13.28125 L 12.59375 -13.28125 C 14.46875 -13.28125 15.957031 -13.726562 17.0625 -14.625 C 18.164062 -15.519531 18.71875 -16.96875 18.71875 -18.96875 C 18.71875 -20.96875 18.164062 -22.410156 17.0625 -23.296875 C 15.957031 -24.191406 14.46875 -24.640625 12.59375 -24.640625 L 4.875 -24.640625 Z M 4.875 -13.28125 "/></g></g></g><g fill="#000000" fill-opacity="1"><g transform="translate(265.710639, 804.562591)"><g><path d="M 2.28125 0 L 2.28125 -26.8125 L 13.3125 -26.8125 C 15.882812 -26.8125 17.9375 -26.191406 19.46875 -24.953125 C 21.007812 -23.710938 21.78125 -21.804688 21.78125 -19.234375 C 21.78125 -17.335938 21.253906 -15.8125 20.203125 -14.65625 C 19.160156 -13.507812 17.75 -12.757812 15.96875 -12.40625 L 15.96875 -12.34375 C 17.09375 -12.1875 18 -11.796875 18.6875 -11.171875 C 19.375 -10.546875 19.898438 -9.789062 20.265625 -8.90625 C 20.628906 -8.019531 20.890625 -7.09375 21.046875 -6.125 C 21.210938 -5.164062 21.332031 -4.253906 21.40625 -3.390625 C 21.488281 -2.523438 21.582031 -1.804688 21.6875 -1.234375 C 21.800781 -0.660156 21.984375 -0.335938 22.234375 -0.265625 L 22.234375 0 L 19.5 0 C 19.269531 -0.195312 19.113281 -0.601562 19.03125 -1.21875 C 18.945312 -1.832031 18.875 -2.5625 18.8125 -3.40625 C 18.75 -4.257812 18.628906 -5.132812 18.453125 -6.03125 C 18.273438 -6.9375 17.992188 -7.78125 17.609375 -8.5625 C 17.222656 -9.351562 16.664062 -9.992188 15.9375 -10.484375 C 15.207031 -10.972656 14.242188 -11.21875 13.046875 -11.21875 L 4.875 -11.21875 L 4.875 0 Z M 4.875 -13.34375 L 12.453125 -13.34375 C 14.453125 -13.34375 16.078125 -13.8125 17.328125 -14.75 C 18.578125 -15.6875 19.203125 -17.109375 19.203125 -19.015625 C 19.203125 -21.015625 18.625 -22.453125 17.46875 -23.328125 C 16.320312 -24.203125 14.648438 -24.640625 12.453125 -24.640625 L 4.875 -24.640625 Z M 4.875 -13.34375 "/></g></g></g><g fill="#000000" fill-opacity="1"><g transform="translate(300.276508, 804.562591)"><g><path d="M 13.796875 0.453125 C 11.242188 0.453125 9.03125 -0.140625 7.15625 -1.328125 C 5.28125 -2.515625 3.820312 -4.148438 2.78125 -6.234375 C 1.75 -8.328125 1.234375 -10.722656 1.234375 -13.421875 C 1.234375 -16.117188 1.75 -18.503906 2.78125 -20.578125 C 3.820312 -22.660156 5.28125 -24.296875 7.15625 -25.484375 C 9.03125 -26.671875 11.242188 -27.265625 13.796875 -27.265625 C 16.347656 -27.265625 18.566406 -26.671875 20.453125 -25.484375 C 22.335938 -24.296875 23.789062 -22.660156 24.8125 -20.578125 C 25.84375 -18.503906 26.359375 -16.117188 26.359375 -13.421875 C 26.359375 -10.722656 25.84375 -8.328125 24.8125 -6.234375 C 23.789062 -4.148438 22.335938 -2.515625 20.453125 -1.328125 C 18.566406 -0.140625 16.347656 0.453125 13.796875 0.453125 Z M 13.796875 -1.71875 C 15.796875 -1.71875 17.539062 -2.210938 19.03125 -3.203125 C 20.519531 -4.191406 21.679688 -5.566406 22.515625 -7.328125 C 23.359375 -9.085938 23.78125 -11.117188 23.78125 -13.421875 C 23.78125 -15.722656 23.359375 -17.753906 22.515625 -19.515625 C 21.679688 -21.273438 20.519531 -22.648438 19.03125 -23.640625 C 17.539062 -24.628906 15.796875 -25.125 13.796875 -25.125 C 11.828125 -25.125 10.09375 -24.628906 8.59375 -23.640625 C 7.09375 -22.648438 5.921875 -21.273438 5.078125 -19.515625 C 4.242188 -17.753906 3.828125 -15.722656 3.828125 -13.421875 C 3.828125 -11.117188 4.242188 -9.085938 5.078125 -7.328125 C 5.921875 -5.566406 7.09375 -4.191406 8.59375 -3.203125 C 10.09375 -2.210938 11.828125 -1.71875 13.796875 -1.71875 Z M 13.796875 -1.71875 "/></g></g></g><g fill="#000000" fill-opacity="1"><g transform="translate(339.116048, 804.562591)"><g><path d="M 2.28125 0 L 2.28125 -26.8125 L 12.671875 -26.8125 C 14.398438 -26.8125 15.90625 -26.546875 17.1875 -26.015625 C 18.476562 -25.492188 19.484375 -24.65625 20.203125 -23.5 C 20.929688 -22.351562 21.296875 -20.84375 21.296875 -18.96875 C 21.296875 -17.09375 20.929688 -15.582031 20.203125 -14.4375 C 19.484375 -13.289062 18.476562 -12.453125 17.1875 -11.921875 C 15.90625 -11.398438 14.398438 -11.140625 12.671875 -11.140625 L 4.875 -11.140625 L 4.875 0 Z M 4.875 -13.28125 L 12.59375 -13.28125 C 14.46875 -13.28125 15.957031 -13.726562 17.0625 -14.625 C 18.164062 -15.519531 18.71875 -16.96875 18.71875 -18.96875 C 18.71875 -20.96875 18.164062 -22.410156 17.0625 -23.296875 C 15.957031 -24.191406 14.46875 -24.640625 12.59375 -24.640625 L 4.875 -24.640625 Z M 4.875 -13.28125 "/></g></g></g><g fill="#000000" fill-opacity="1"><g transform="translate(372.444799, 804.562591)"><g><path d="M 2.28125 0 L 2.28125 -26.8125 L 20.59375 -26.8125 L 20.59375 -24.640625 L 4.875 -24.640625 L 4.875 -15.21875 L 19.125 -15.21875 L 19.125 -13.046875 L 4.875 -13.046875 L 4.875 -2.171875 L 20.921875 -2.171875 L 20.921875 0 Z M 2.28125 0 "/></g></g></g><g fill="#000000" fill-opacity="1"><g transform="translate(405.960993, 804.562591)"><g><path d="M 2.28125 0 L 2.28125 -26.8125 L 13.3125 -26.8125 C 15.882812 -26.8125 17.9375 -26.191406 19.46875 -24.953125 C 21.007812 -23.710938 21.78125 -21.804688 21.78125 -19.234375 C 21.78125 -17.335938 21.253906 -15.8125 20.203125 -14.65625 C 19.160156 -13.507812 17.75 -12.757812 15.96875 -12.40625 L 15.96875 -12.34375 C 17.09375 -12.1875 18 -11.796875 18.6875 -11.171875 C 19.375 -10.546875 19.898438 -9.789062 20.265625 -8.90625 C 20.628906 -8.019531 20.890625 -7.09375 21.046875 -6.125 C 21.210938 -5.164062 21.332031 -4.253906 21.40625 -3.390625 C 21.488281 -2.523438 21.582031 -1.804688 21.6875 -1.234375 C 21.800781 -0.660156 21.984375 -0.335938 22.234375 -0.265625 L 22.234375 0 L 19.5 0 C 19.269531 -0.195312 19.113281 -0.601562 19.03125 -1.21875 C 18.945312 -1.832031 18.875 -2.5625 18.8125 -3.40625 C 18.75 -4.257812 18.628906 -5.132812 18.453125 -6.03125 C 18.273438 -6.9375 17.992188 -7.78125 17.609375 -8.5625 C 17.222656 -9.351562 16.664062 -9.992188 15.9375 -10.484375 C 15.207031 -10.972656 14.242188 -11.21875 13.046875 -11.21875 L 4.875 -11.21875 L 4.875 0 Z M 4.875 -13.34375 L 12.453125 -13.34375 C 14.453125 -13.34375 16.078125 -13.8125 17.328125 -14.75 C 18.578125 -15.6875 19.203125 -17.109375 19.203125 -19.015625 C 19.203125 -21.015625 18.625 -22.453125 17.46875 -23.328125 C 16.320312 -24.203125 14.648438 -24.640625 12.453125 -24.640625 L 4.875 -24.640625 Z M 4.875 -13.34375 "/></g></g></g><g fill="#000000" fill-opacity="1"><g transform="translate(440.526874, 804.562591)"><g><path d="M 9.859375 0 L 9.859375 -24.640625 L 0.71875 -24.640625 L 0.71875 -26.8125 L 21.5625 -26.8125 L 21.5625 -24.640625 L 12.453125 -24.640625 L 12.453125 0 Z M 9.859375 0 "/></g></g></g><g fill="#000000" fill-opacity="1"><g transform="translate(474.043045, 804.562591)"><g><path d="M 9.90625 0 L 9.90625 -10.71875 L 0.21875 -26.8125 L 3.078125 -26.8125 L 11.140625 -13.15625 L 11.21875 -13.15625 L 19.34375 -26.8125 L 22.203125 -26.8125 L 12.484375 -10.71875 L 12.484375 0 Z M 9.90625 0 "/></g></g></g><g fill="#000000" fill-opacity="1"><g transform="translate(507.709203, 804.562591)"><g/></g></g><g fill="#000000" fill-opacity="1"><g transform="translate(527.01733, 804.562591)"><g><path d="M 2.28125 0 L 2.28125 -26.8125 L 5.65625 -26.8125 L 15 -3.640625 L 15.078125 -3.640625 L 24.453125 -26.8125 L 27.828125 -26.8125 L 27.828125 0 L 25.34375 0 L 25.34375 -22.953125 L 25.28125 -22.953125 L 16.125 0 L 13.984375 0 L 4.875 -22.953125 L 4.796875 -22.953125 L 4.796875 0 Z M 2.28125 0 "/></g></g></g><g fill="#000000" fill-opacity="1"><g transform="translate(568.368583, 804.562591)"><g><path d="M 0.21875 0 L 10.34375 -26.8125 L 13.125 -26.8125 L 23.28125 0 L 20.703125 0 L 17.625 -8.25 L 5.890625 -8.25 L 2.8125 0 Z M 6.5625 -10.3125 L 16.953125 -10.3125 L 11.78125 -24.21875 L 11.703125 -24.21875 Z M 6.5625 -10.3125 "/></g></g></g><g fill="#000000" fill-opacity="1"><g transform="translate(603.121884, 804.562591)"><g><path d="M 2.28125 0 L 2.28125 -26.8125 L 13.3125 -26.8125 C 15.882812 -26.8125 17.9375 -26.191406 19.46875 -24.953125 C 21.007812 -23.710938 21.78125 -21.804688 21.78125 -19.234375 C 21.78125 -17.335938 21.253906 -15.8125 20.203125 -14.65625 C 19.160156 -13.507812 17.75 -12.757812 15.96875 -12.40625 L 15.96875 -12.34375 C 17.09375 -12.1875 18 -11.796875 18.6875 -11.171875 C 19.375 -10.546875 19.898438 -9.789062 20.265625 -8.90625 C 20.628906 -8.019531 20.890625 -7.09375 21.046875 -6.125 C 21.210938 -5.164062 21.332031 -4.253906 21.40625 -3.390625 C 21.488281 -2.523438 21.582031 -1.804688 21.6875 -1.234375 C 21.800781 -0.660156 21.984375 -0.335938 22.234375 -0.265625 L 22.234375 0 L 19.5 0 C 19.269531 -0.195312 19.113281 -0.601562 19.03125 -1.21875 C 18.945312 -1.832031 18.875 -2.5625 18.8125 -3.40625 C 18.75 -4.257812 18.628906 -5.132812 18.453125 -6.03125 C 18.273438 -6.9375 17.992188 -7.78125 17.609375 -8.5625 C 17.222656 -9.351562 16.664062 -9.992188 15.9375 -10.484375 C 15.207031 -10.972656 14.242188 -11.21875 13.046875 -11.21875 L 4.875 -11.21875 L 4.875 0 Z M 4.875 -13.34375 L 12.453125 -13.34375 C 14.453125 -13.34375 16.078125 -13.8125 17.328125 -14.75 C 18.578125 -15.6875 19.203125 -17.109375 19.203125 -19.015625 C 19.203125 -21.015625 18.625 -22.453125 17.46875 -23.328125 C 16.320312 -24.203125 14.648438 -24.640625 12.453125 -24.640625 L 4.875 -24.640625 Z M 4.875 -13.34375 "/></g></g></g><g fill="#000000" fill-opacity="1"><g transform="translate(637.68773, 804.562591)"><g><path d="M 2.28125 0 L 2.28125 -26.8125 L 4.875 -26.8125 L 4.875 -11.0625 L 19.796875 -26.8125 L 22.953125 -26.8125 L 12.078125 -15.265625 L 23.546875 0 L 20.515625 0 L 10.390625 -13.390625 L 4.875 -7.609375 L 4.875 0 Z M 2.28125 0 "/></g></g></g><g fill="#000000" fill-opacity="1"><g transform="translate(672.553526, 804.562591)"><g><path d="M 2.28125 0 L 2.28125 -26.8125 L 20.59375 -26.8125 L 20.59375 -24.640625 L 4.875 -24.640625 L 4.875 -15.21875 L 19.125 -15.21875 L 19.125 -13.046875 L 4.875 -13.046875 L 4.875 -2.171875 L 20.921875 -2.171875 L 20.921875 0 Z M 2.28125 0 "/></g></g></g><g fill="#000000" fill-opacity="1"><g transform="translate(706.069743, 804.562591)"><g><path d="M 9.859375 0 L 9.859375 -24.640625 L 0.71875 -24.640625 L 0.71875 -26.8125 L 21.5625 -26.8125 L 21.5625 -24.640625 L 12.453125 -24.640625 L 12.453125 0 Z M 9.859375 0 "/></g></g></g><g fill="#000000" fill-opacity="1"><g transform="translate(739.585914, 804.562591)"><g><path d="M 2.40625 0 L 2.40625 -26.8125 L 4.984375 -26.8125 L 4.984375 0 Z M 2.40625 0 "/></g></g></g><g fill="#000000" fill-opacity="1"><g transform="translate(758.181738, 804.562591)"><g><path d="M 2.28125 0 L 2.28125 -26.8125 L 5.09375 -26.8125 L 20.28125 -3.96875 L 20.359375 -3.96875 L 20.359375 -26.8125 L 22.953125 -26.8125 L 22.953125 0 L 20.140625 0 L 4.953125 -22.765625 L 4.875 -22.765625 L 4.875 0 Z M 2.28125 0 "/></g></g></g><g fill="#000000" fill-opacity="1"><g transform="translate(794.659549, 804.562591)"><g><path d="M 13.421875 0.453125 C 10.796875 0.453125 8.578125 -0.148438 6.765625 -1.359375 C 4.953125 -2.578125 3.578125 -4.226562 2.640625 -6.3125 C 1.703125 -8.40625 1.234375 -10.765625 1.234375 -13.390625 C 1.234375 -15.960938 1.710938 -18.296875 2.671875 -20.390625 C 3.640625 -22.492188 5.0625 -24.164062 6.9375 -25.40625 C 8.8125 -26.644531 11.113281 -27.265625 13.84375 -27.265625 C 15.84375 -27.265625 17.601562 -26.910156 19.125 -26.203125 C 20.644531 -25.503906 21.878906 -24.523438 22.828125 -23.265625 C 23.785156 -22.003906 24.398438 -20.535156 24.671875 -18.859375 L 22.09375 -18.859375 C 21.863281 -20.035156 21.382812 -21.097656 20.65625 -22.046875 C 19.9375 -22.992188 19 -23.742188 17.84375 -24.296875 C 16.695312 -24.847656 15.363281 -25.125 13.84375 -25.125 C 11.59375 -25.125 9.722656 -24.585938 8.234375 -23.515625 C 6.742188 -22.441406 5.632812 -21.015625 4.90625 -19.234375 C 4.1875 -17.460938 3.828125 -15.515625 3.828125 -13.390625 C 3.828125 -11.210938 4.175781 -9.242188 4.875 -7.484375 C 5.570312 -5.722656 6.648438 -4.320312 8.109375 -3.28125 C 9.578125 -2.238281 11.425781 -1.71875 13.65625 -1.71875 C 15.476562 -1.71875 17.046875 -2.125 18.359375 -2.9375 C 19.671875 -3.75 20.679688 -4.894531 21.390625 -6.375 C 22.109375 -7.851562 22.46875 -9.566406 22.46875 -11.515625 L 14.21875 -11.515625 L 14.21875 -13.53125 L 25.09375 -13.53125 L 25.09375 0 L 23.171875 0 L 22.875 -6.1875 L 22.796875 -6.1875 C 22.472656 -4.957031 21.90625 -3.84375 21.09375 -2.84375 C 20.28125 -1.84375 19.234375 -1.039062 17.953125 -0.4375 C 16.679688 0.15625 15.171875 0.453125 13.421875 0.453125 Z M 13.421875 0.453125 "/></g></g></g><g fill="#000000" fill-opacity="1"><g transform="translate(832.936737, 804.562591)"><g/></g></g><g fill="#000000" fill-opacity="1"><g transform="translate(852.244841, 804.562591)"><g><path d="M 9.078125 0.453125 C 6.648438 0.453125 4.726562 -0.21875 3.3125 -1.5625 C 1.90625 -2.914062 1.203125 -4.695312 1.203125 -6.90625 C 1.203125 -8.320312 1.519531 -9.550781 2.15625 -10.59375 C 2.789062 -11.632812 3.585938 -12.519531 4.546875 -13.25 C 5.515625 -13.988281 6.488281 -14.625 7.46875 -15.15625 C 6.539062 -16.320312 5.75 -17.410156 5.09375 -18.421875 C 4.445312 -19.441406 4.125 -20.5625 4.125 -21.78125 C 4.125 -22.65625 4.34375 -23.507812 4.78125 -24.34375 C 5.21875 -25.1875 5.882812 -25.882812 6.78125 -26.4375 C 7.6875 -26.988281 8.828125 -27.265625 10.203125 -27.265625 C 11.472656 -27.285156 12.554688 -27.023438 13.453125 -26.484375 C 14.359375 -25.953125 15.054688 -25.265625 15.546875 -24.421875 C 16.035156 -23.585938 16.28125 -22.707031 16.28125 -21.78125 C 16.28125 -20.257812 15.789062 -18.96875 14.8125 -17.90625 C 13.832031 -16.84375 12.429688 -15.800781 10.609375 -14.78125 L 16.875 -6.78125 C 17.726562 -8.488281 18.226562 -10.238281 18.375 -12.03125 L 20.59375 -12.03125 C 20.488281 -10.90625 20.25 -9.726562 19.875 -8.5 C 19.5 -7.28125 18.972656 -6.125 18.296875 -5.03125 L 22.3125 0 L 19.3125 0 L 16.796875 -3.265625 C 15.898438 -2.191406 14.8125 -1.300781 13.53125 -0.59375 C 12.257812 0.101562 10.773438 0.453125 9.078125 0.453125 Z M 9.40625 -16.203125 C 9.507812 -16.328125 9.796875 -16.519531 10.265625 -16.78125 C 10.742188 -17.039062 11.265625 -17.382812 11.828125 -17.8125 C 12.390625 -18.238281 12.882812 -18.769531 13.3125 -19.40625 C 13.738281 -20.039062 13.953125 -20.796875 13.953125 -21.671875 C 13.953125 -22.617188 13.625 -23.441406 12.96875 -24.140625 C 12.320312 -24.847656 11.398438 -25.203125 10.203125 -25.203125 C 8.878906 -25.203125 7.921875 -24.835938 7.328125 -24.109375 C 6.742188 -23.390625 6.453125 -22.578125 6.453125 -21.671875 C 6.453125 -20.703125 6.75 -19.785156 7.34375 -18.921875 C 7.945312 -18.054688 8.632812 -17.148438 9.40625 -16.203125 Z M 9.265625 -1.609375 C 10.585938 -1.609375 11.773438 -1.921875 12.828125 -2.546875 C 13.878906 -3.171875 14.753906 -3.957031 15.453125 -4.90625 L 8.65625 -13.71875 C 7.832031 -13.25 7.039062 -12.710938 6.28125 -12.109375 C 5.519531 -11.515625 4.894531 -10.820312 4.40625 -10.03125 C 3.914062 -9.238281 3.671875 -8.296875 3.671875 -7.203125 C 3.671875 -5.472656 4.179688 -4.109375 5.203125 -3.109375 C 6.234375 -2.109375 7.585938 -1.609375 9.265625 -1.609375 Z M 9.265625 -1.609375 "/></g></g></g><g fill="#000000" fill-opacity="1"><g transform="translate(885.761058, 804.562591)"><g/></g></g><g fill="#000000" fill-opacity="1"><g transform="translate(905.069162, 804.562591)"><g><path d="M 10.125 0 L 0.21875 -26.8125 L 2.96875 -26.8125 L 11.328125 -3.59375 L 11.40625 -3.59375 L 19.765625 -26.8125 L 22.5 -26.8125 L 12.59375 0 Z M 10.125 0 "/></g></g></g><g fill="#000000" fill-opacity="1"><g transform="translate(939.035223, 804.562591)"><g><path d="M 2.40625 0 L 2.40625 -26.8125 L 4.984375 -26.8125 L 4.984375 0 Z M 2.40625 0 "/></g></g></g><g fill="#000000" fill-opacity="1"><g transform="translate(957.631047, 804.562591)"><g><path d="M 11.921875 0.453125 C 9.867188 0.453125 8.019531 0.113281 6.375 -0.5625 C 4.726562 -1.238281 3.40625 -2.25 2.40625 -3.59375 C 1.40625 -4.945312 0.851562 -6.632812 0.75 -8.65625 L 3.34375 -8.65625 C 3.46875 -6.382812 4.3125 -4.660156 5.875 -3.484375 C 7.4375 -2.304688 9.453125 -1.71875 11.921875 -1.71875 C 14.203125 -1.71875 15.90625 -2.25 17.03125 -3.3125 C 18.15625 -4.375 18.726562 -5.632812 18.75 -7.09375 C 18.75 -8.414062 18.410156 -9.453125 17.734375 -10.203125 C 17.054688 -10.953125 16.070312 -11.535156 14.78125 -11.953125 C 13.5 -12.378906 11.921875 -12.769531 10.046875 -13.125 C 8.367188 -13.445312 6.90625 -13.882812 5.65625 -14.4375 C 4.40625 -14.988281 3.4375 -15.742188 2.75 -16.703125 C 2.0625 -17.671875 1.71875 -18.90625 1.71875 -20.40625 C 1.71875 -21.945312 2.113281 -23.222656 2.90625 -24.234375 C 3.695312 -25.253906 4.769531 -26.015625 6.125 -26.515625 C 7.488281 -27.015625 9.019531 -27.265625 10.71875 -27.265625 C 12.570312 -27.265625 14.210938 -26.957031 15.640625 -26.34375 C 17.066406 -25.726562 18.203125 -24.832031 19.046875 -23.65625 C 19.898438 -22.488281 20.375 -21.066406 20.46875 -19.390625 L 17.890625 -19.390625 C 17.710938 -21.140625 17.03125 -22.53125 15.84375 -23.5625 C 14.65625 -24.601562 12.945312 -25.125 10.71875 -25.125 C 8.820312 -25.125 7.28125 -24.71875 6.09375 -23.90625 C 4.90625 -23.09375 4.3125 -21.960938 4.3125 -20.515625 C 4.3125 -19.335938 4.609375 -18.410156 5.203125 -17.734375 C 5.804688 -17.054688 6.664062 -16.535156 7.78125 -16.171875 C 8.894531 -15.816406 10.238281 -15.488281 11.8125 -15.1875 C 13.789062 -14.8125 15.484375 -14.320312 16.890625 -13.71875 C 18.304688 -13.125 19.398438 -12.3125 20.171875 -11.28125 C 20.953125 -10.257812 21.34375 -8.910156 21.34375 -7.234375 C 21.34375 -5.785156 20.972656 -4.476562 20.234375 -3.3125 C 19.492188 -2.15625 18.421875 -1.238281 17.015625 -0.5625 C 15.617188 0.113281 13.921875 0.453125 11.921875 0.453125 Z M 11.921875 0.453125 "/></g></g></g><g fill="#000000" fill-opacity="1"><g transform="translate(991.409655, 804.562591)"><g><path d="M 12 0.453125 C 8.476562 0.453125 5.921875 -0.394531 4.328125 -2.09375 C 2.742188 -3.800781 1.953125 -6.238281 1.953125 -9.40625 L 1.953125 -26.8125 L 4.53125 -26.8125 L 4.53125 -9.40625 C 4.53125 -6.757812 5.148438 -4.816406 6.390625 -3.578125 C 7.628906 -2.335938 9.5 -1.71875 12 -1.71875 C 14.5 -1.71875 16.359375 -2.335938 17.578125 -3.578125 C 18.804688 -4.816406 19.421875 -6.757812 19.421875 -9.40625 L 19.421875 -26.8125 L 22.015625 -26.8125 L 22.015625 -9.40625 C 22.015625 -6.238281 21.222656 -3.800781 19.640625 -2.09375 C 18.066406 -0.394531 15.519531 0.453125 12 0.453125 Z M 12 0.453125 "/></g></g></g><g fill="#000000" fill-opacity="1"><g transform="translate(1026.650313, 804.562591)"><g><path d="M 0.21875 0 L 10.34375 -26.8125 L 13.125 -26.8125 L 23.28125 0 L 20.703125 0 L 17.625 -8.25 L 5.890625 -8.25 L 2.8125 0 Z M 6.5625 -10.3125 L 16.953125 -10.3125 L 11.78125 -24.21875 L 11.703125 -24.21875 Z M 6.5625 -10.3125 "/></g></g></g><g fill="#000000" fill-opacity="1"><g transform="translate(1061.403637, 804.562591)"><g><path d="M 2.28125 0 L 2.28125 -26.8125 L 4.875 -26.8125 L 4.875 -2.171875 L 19.390625 -2.171875 L 19.390625 0 Z M 2.28125 0 "/></g></g></g><g fill="#000000" fill-opacity="1"><g transform="translate(1092.85795, 804.562591)"><g/></g></g><g fill="#000000" fill-opacity="1"><g transform="translate(1112.166054, 804.562591)"><g><path d="M 2.28125 0 L 2.28125 -26.8125 L 5.65625 -26.8125 L 15 -3.640625 L 15.078125 -3.640625 L 24.453125 -26.8125 L 27.828125 -26.8125 L 27.828125 0 L 25.34375 0 L 25.34375 -22.953125 L 25.28125 -22.953125 L 16.125 0 L 13.984375 0 L 4.875 -22.953125 L 4.796875 -22.953125 L 4.796875 0 Z M 2.28125 0 "/></g></g></g><g fill="#000000" fill-opacity="1"><g transform="translate(1153.517308, 804.562591)"><g><path d="M 2.28125 0 L 2.28125 -26.8125 L 20.59375 -26.8125 L 20.59375 -24.640625 L 4.875 -24.640625 L 4.875 -15.21875 L 19.125 -15.21875 L 19.125 -13.046875 L 4.875 -13.046875 L 4.875 -2.171875 L 20.921875 -2.171875 L 20.921875 0 Z M 2.28125 0 "/></g></g></g><g fill="#000000" fill-opacity="1"><g transform="translate(1187.03357, 804.562591)"><g><path d="M 2.28125 0 L 2.28125 -26.8125 L 12.453125 -26.8125 C 15.023438 -26.8125 17.140625 -26.222656 18.796875 -25.046875 C 20.460938 -23.867188 21.703125 -22.269531 22.515625 -20.25 C 23.328125 -18.226562 23.734375 -15.914062 23.734375 -13.3125 C 23.734375 -10.707031 23.320312 -8.40625 22.5 -6.40625 C 21.675781 -4.40625 20.425781 -2.835938 18.75 -1.703125 C 17.070312 -0.566406 14.945312 0 12.375 0 Z M 4.84375 -2.171875 L 12.078125 -2.171875 C 15.046875 -2.171875 17.300781 -3.164062 18.84375 -5.15625 C 20.382812 -7.144531 21.15625 -9.863281 21.15625 -13.3125 C 21.15625 -16.757812 20.414062 -19.507812 18.9375 -21.5625 C 17.457031 -23.613281 15.234375 -24.640625 12.265625 -24.640625 L 4.84375 -24.640625 Z M 4.84375 -2.171875 "/></g></g></g><g fill="#000000" fill-opacity="1"><g transform="translate(1223.248899, 804.562591)"><g><path d="M 2.40625 0 L 2.40625 -26.8125 L 4.984375 -26.8125 L 4.984375 0 Z M 2.40625 0 "/></g></g></g><g fill="#000000" fill-opacity="1"><g transform="translate(1241.844723, 804.562591)"><g><path d="M 0.21875 0 L 10.34375 -26.8125 L 13.125 -26.8125 L 23.28125 0 L 20.703125 0 L 17.625 -8.25 L 5.890625 -8.25 L 2.8125 0 Z M 6.5625 -10.3125 L 16.953125 -10.3125 L 11.78125 -24.21875 L 11.703125 -24.21875 Z M 6.5625 -10.3125 "/></g></g></g><g fill="#000000" fill-opacity="1"><g transform="translate(452.229066, 706.380735)"><g><path d="M 55.734375 -62.515625 L 55.734375 -56.21875 L 33.375 -56.21875 L 33.375 0.09375 L 25.65625 0.09375 L 25.65625 -56.21875 L 3.109375 -56.21875 L 3.109375 -62.515625 Z M 55.734375 -62.515625 "/></g></g></g><g fill="#000000" fill-opacity="1"><g transform="translate(508.532654, 706.380735)"><g><path d="M 32.4375 -48.5 C 38.320312 -48.5 42.578125 -46.929688 45.203125 -43.796875 C 47.835938 -40.671875 49.15625 -36.066406 49.15625 -29.984375 L 49.15625 0 L 41.640625 0 L 41.640625 -29.140625 C 41.640625 -34.148438 40.617188 -37.578125 38.578125 -39.421875 C 36.546875 -41.273438 33.804688 -42.203125 30.359375 -42.203125 C 25.160156 -42.203125 21.195312 -40.179688 18.46875 -36.140625 C 15.738281 -32.097656 14.375 -26.035156 14.375 -17.953125 L 14.375 0 L 6.859375 0 L 6.859375 -65.796875 L 14.375 -65.796875 L 14.375 -34.6875 C 15.820312 -38.945312 18.03125 -42.3125 21 -44.78125 C 23.976562 -47.257812 27.789062 -48.5 32.4375 -48.5 Z M 32.4375 -48.5 "/></g></g></g><g fill="#000000" fill-opacity="1"><g transform="translate(562.298366, 706.380735)"><g><path d="M 28.109375 -4.234375 C 32.742188 -4.234375 36.203125 -5.203125 38.484375 -7.140625 C 40.773438 -9.085938 42.265625 -11.53125 42.953125 -14.46875 L 49.8125 -14.46875 C 49.5 -12.09375 48.609375 -9.664062 47.140625 -7.1875 C 45.671875 -4.71875 43.382812 -2.648438 40.28125 -0.984375 C 37.175781 0.671875 33.023438 1.5 27.828125 1.5 C 22.429688 1.5 18.007812 0.390625 14.5625 -1.828125 C 11.125 -4.054688 8.585938 -7.066406 6.953125 -10.859375 C 5.328125 -14.648438 4.515625 -18.894531 4.515625 -23.59375 C 4.515625 -28.289062 5.375 -32.519531 7.09375 -36.28125 C 8.820312 -40.039062 11.40625 -43.015625 14.84375 -45.203125 C 18.289062 -47.398438 22.617188 -48.5 27.828125 -48.5 C 32.523438 -48.5 36.519531 -47.492188 39.8125 -45.484375 C 43.101562 -43.484375 45.609375 -40.726562 47.328125 -37.21875 C 49.046875 -33.707031 49.90625 -29.664062 49.90625 -25.09375 C 49.90625 -24.46875 49.90625 -23.90625 49.90625 -23.40625 C 49.90625 -22.90625 49.84375 -22.375 49.71875 -21.8125 L 11.9375 -21.8125 C 12.25 -15.351562 13.847656 -10.804688 16.734375 -8.171875 C 19.617188 -5.546875 23.410156 -4.234375 28.109375 -4.234375 Z M 27.921875 -42.765625 C 23.472656 -42.765625 19.851562 -41.601562 17.0625 -39.28125 C 14.269531 -36.96875 12.625 -33.023438 12.125 -27.453125 L 42.578125 -27.453125 C 42.390625 -32.835938 40.992188 -36.734375 38.390625 -39.140625 C 35.796875 -41.554688 32.304688 -42.765625 27.921875 -42.765625 Z M 27.921875 -42.765625 "/></g></g></g><g fill="#000000" fill-opacity="1"><g transform="translate(616.440085, 706.380735)"><g/></g></g><g fill="#000000" fill-opacity="1"><g transform="translate(637.5892, 706.380735)"><g><path d="M 35.0625 -62.515625 C 39.570312 -62.515625 43.207031 -61.695312 45.96875 -60.0625 C 48.726562 -58.4375 50.75 -56.242188 52.03125 -53.484375 C 53.3125 -50.722656 53.953125 -47.65625 53.953125 -44.28125 C 53.953125 -40.957031 53.3125 -37.898438 52.03125 -35.109375 C 50.75 -32.316406 48.695312 -30.085938 45.875 -28.421875 C 43.050781 -26.765625 39.320312 -25.9375 34.6875 -25.9375 L 14.28125 -25.9375 L 14.28125 0 L 6.390625 0 L 6.390625 -62.515625 Z M 33.09375 -32.234375 C 37.726562 -32.234375 41 -33.347656 42.90625 -35.578125 C 44.820312 -37.804688 45.78125 -40.707031 45.78125 -44.28125 C 45.78125 -47.96875 44.835938 -50.878906 42.953125 -53.015625 C 41.078125 -55.148438 37.882812 -56.21875 33.375 -56.21875 L 14.28125 -56.21875 L 14.28125 -32.234375 Z M 33.09375 -32.234375 "/></g></g></g><g fill="#000000" fill-opacity="1"><g transform="translate(694.738781, 706.380735)"><g><path d="M 31.578125 -47.65625 L 33.28125 -47.65625 L 33.28125 -40.234375 L 31.296875 -40.234375 C 26.660156 -40.421875 23.117188 -39.507812 20.671875 -37.5 C 18.234375 -35.5 16.570312 -32.742188 15.6875 -29.234375 C 14.8125 -25.722656 14.375 -21.742188 14.375 -17.296875 L 14.375 0 L 6.859375 0 L 6.859375 -47 L 14.375 -47 L 14.375 -34.59375 C 15.820312 -38.476562 17.9375 -41.625 20.71875 -44.03125 C 23.507812 -46.445312 27.128906 -47.65625 31.578125 -47.65625 Z M 31.578125 -47.65625 "/></g></g></g><g fill="#000000" fill-opacity="1"><g transform="translate(727.919343, 706.380735)"><g><path d="M 28.203125 1.5 C 22.929688 1.5 18.539062 0.390625 15.03125 -1.828125 C 11.53125 -4.054688 8.898438 -7.066406 7.140625 -10.859375 C 5.390625 -14.648438 4.515625 -18.894531 4.515625 -23.59375 C 4.515625 -28.289062 5.390625 -32.519531 7.140625 -36.28125 C 8.898438 -40.039062 11.53125 -43.015625 15.03125 -45.203125 C 18.539062 -47.398438 22.929688 -48.5 28.203125 -48.5 C 33.460938 -48.5 37.832031 -47.382812 41.3125 -45.15625 C 44.789062 -42.9375 47.40625 -39.945312 49.15625 -36.1875 C 50.914062 -32.425781 51.796875 -28.226562 51.796875 -23.59375 C 51.796875 -18.894531 50.914062 -14.648438 49.15625 -10.859375 C 47.40625 -7.066406 44.789062 -4.054688 41.3125 -1.828125 C 37.832031 0.390625 33.460938 1.5 28.203125 1.5 Z M 12.125 -23.5 C 12.125 -16.914062 13.46875 -12.117188 16.15625 -9.109375 C 18.851562 -6.109375 22.867188 -4.609375 28.203125 -4.609375 C 33.523438 -4.609375 37.519531 -6.109375 40.1875 -9.109375 C 42.851562 -12.117188 44.1875 -16.914062 44.1875 -23.5 C 44.1875 -30.144531 42.851562 -34.953125 40.1875 -37.921875 C 37.519531 -40.898438 33.523438 -42.390625 28.203125 -42.390625 C 22.867188 -42.390625 18.851562 -40.898438 16.15625 -37.921875 C 13.46875 -34.953125 12.125 -30.144531 12.125 -23.5 Z M 12.125 -23.5 "/></g></g></g><g fill="#000000" fill-opacity="1"><g transform="translate(783.189015, 706.380735)"><g><path d="M 31.953125 -48.5 C 36.910156 -48.5 40.96875 -47.414062 44.125 -45.25 C 47.289062 -43.09375 49.640625 -40.132812 51.171875 -36.375 C 52.710938 -32.613281 53.484375 -28.320312 53.484375 -23.5 C 53.484375 -18.675781 52.710938 -14.382812 51.171875 -10.625 C 49.640625 -6.863281 47.289062 -3.898438 44.125 -1.734375 C 40.96875 0.421875 36.910156 1.5 31.953125 1.5 C 27.628906 1.5 23.992188 0.59375 21.046875 -1.21875 C 18.109375 -3.039062 15.820312 -5.613281 14.1875 -8.9375 L 14.1875 18.796875 L 6.671875 18.796875 L 6.671875 -47 L 14.1875 -47 L 14.1875 -37.96875 C 15.820312 -41.289062 18.109375 -43.875 21.046875 -45.71875 C 23.992188 -47.570312 27.628906 -48.5 31.953125 -48.5 Z M 30.453125 -4.609375 C 35.847656 -4.609375 39.765625 -6.171875 42.203125 -9.296875 C 44.648438 -12.429688 45.875 -17.164062 45.875 -23.5 C 45.875 -29.832031 44.648438 -34.5625 42.203125 -37.6875 C 39.765625 -40.820312 35.847656 -42.390625 30.453125 -42.390625 C 25.503906 -42.390625 21.554688 -40.898438 18.609375 -37.921875 C 15.660156 -34.953125 14.1875 -30.144531 14.1875 -23.5 C 14.1875 -16.851562 15.660156 -12.039062 18.609375 -9.0625 C 21.554688 -6.09375 25.503906 -4.609375 30.453125 -4.609375 Z M 30.453125 -4.609375 "/></g></g></g><g fill="#000000" fill-opacity="1"><g transform="translate(840.244582, 706.380735)"><g><path d="M 28.109375 -4.234375 C 32.742188 -4.234375 36.203125 -5.203125 38.484375 -7.140625 C 40.773438 -9.085938 42.265625 -11.53125 42.953125 -14.46875 L 49.8125 -14.46875 C 49.5 -12.09375 48.609375 -9.664062 47.140625 -7.1875 C 45.671875 -4.71875 43.382812 -2.648438 40.28125 -0.984375 C 37.175781 0.671875 33.023438 1.5 27.828125 1.5 C 22.429688 1.5 18.007812 0.390625 14.5625 -1.828125 C 11.125 -4.054688 8.585938 -7.066406 6.953125 -10.859375 C 5.328125 -14.648438 4.515625 -18.894531 4.515625 -23.59375 C 4.515625 -28.289062 5.375 -32.519531 7.09375 -36.28125 C 8.820312 -40.039062 11.40625 -43.015625 14.84375 -45.203125 C 18.289062 -47.398438 22.617188 -48.5 27.828125 -48.5 C 32.523438 -48.5 36.519531 -47.492188 39.8125 -45.484375 C 43.101562 -43.484375 45.609375 -40.726562 47.328125 -37.21875 C 49.046875 -33.707031 49.90625 -29.664062 49.90625 -25.09375 C 49.90625 -24.46875 49.90625 -23.90625 49.90625 -23.40625 C 49.90625 -22.90625 49.84375 -22.375 49.71875 -21.8125 L 11.9375 -21.8125 C 12.25 -15.351562 13.847656 -10.804688 16.734375 -8.171875 C 19.617188 -5.546875 23.410156 -4.234375 28.109375 -4.234375 Z M 27.921875 -42.765625 C 23.472656 -42.765625 19.851562 -41.601562 17.0625 -39.28125 C 14.269531 -36.96875 12.625 -33.023438 12.125 -27.453125 L 42.578125 -27.453125 C 42.390625 -32.835938 40.992188 -36.734375 38.390625 -39.140625 C 35.796875 -41.554688 32.304688 -42.765625 27.921875 -42.765625 Z M 27.921875 -42.765625 "/></g></g></g><g fill="#000000" fill-opacity="1"><g transform="translate(892.882319, 706.380735)"><g><path d="M 31.578125 -47.65625 L 33.28125 -47.65625 L 33.28125 -40.234375 L 31.296875 -40.234375 C 26.660156 -40.421875 23.117188 -39.507812 20.671875 -37.5 C 18.234375 -35.5 16.570312 -32.742188 15.6875 -29.234375 C 14.8125 -25.722656 14.375 -21.742188 14.375 -17.296875 L 14.375 0 L 6.859375 0 L 6.859375 -47 L 14.375 -47 L 14.375 -34.59375 C 15.820312 -38.476562 17.9375 -41.625 20.71875 -44.03125 C 23.507812 -46.445312 27.128906 -47.65625 31.578125 -47.65625 Z M 31.578125 -47.65625 "/></g></g></g><g fill="#000000" fill-opacity="1"><g transform="translate(926.908897, 706.380735)"><g><path d="M 22.1875 0 C 17.675781 0 14.648438 -0.890625 13.109375 -2.671875 C 11.578125 -4.460938 10.8125 -7.238281 10.8125 -11 L 10.8125 -41.078125 L 1.875 -41.078125 L 1.875 -45.3125 L 11.46875 -47.65625 L 14.28125 -57.4375 L 18.328125 -57.4375 L 18.328125 -47 L 33.84375 -47 L 33.84375 -41.078125 L 18.328125 -41.078125 L 18.328125 -6.109375 L 33.28125 -6.109375 L 33.28125 0 Z M 22.1875 0 "/></g></g></g><g fill="#000000" fill-opacity="1"><g transform="translate(963.567341, 706.380735)"><g><path d="M 42.484375 -47 L 49.90625 -47 L 27.828125 7.796875 C 26.878906 10.304688 25.921875 12.375 24.953125 14 C 23.984375 15.632812 22.710938 16.84375 21.140625 17.625 C 19.578125 18.40625 17.382812 18.796875 14.5625 18.796875 L 5.640625 18.796875 L 5.640625 12.6875 L 18.703125 12.6875 L 23.875 0 L 21.25 0 L 2.625 -47 L 10.53125 -47 L 24.90625 -10.8125 L 26.515625 -6.296875 L 27.921875 -10.8125 Z M 42.484375 -47 "/></g></g></g><g fill="#000000" fill-opacity="1"><g transform="translate(1015.829116, 706.380735)"><g/></g></g><g fill="#000000" fill-opacity="1"><g transform="translate(1036.978254, 706.380735)"><g><path d="M 52.734375 -16.546875 L 52.734375 -9.96875 C 52.734375 -7.644531 52.875 -5.695312 53.15625 -4.125 C 53.4375 -2.5625 53.703125 -1.1875 53.953125 0 L 46.34375 0 C 46.03125 -1.0625 45.765625 -2.375 45.546875 -3.9375 C 45.328125 -5.507812 45.21875 -7.425781 45.21875 -9.6875 L 45.21875 -15.421875 C 45.21875 -19.867188 44.054688 -23.078125 41.734375 -25.046875 C 39.421875 -27.023438 36.097656 -28.015625 31.765625 -28.015625 L 14.1875 -28.015625 L 14.1875 0 L 6.390625 0 L 6.390625 -62.515625 L 35.53125 -62.515625 C 41.988281 -62.515625 46.796875 -61.023438 49.953125 -58.046875 C 53.117188 -55.066406 54.703125 -51.070312 54.703125 -46.0625 C 54.703125 -41.863281 53.554688 -38.382812 51.265625 -35.625 C 48.984375 -32.863281 46.085938 -31.078125 42.578125 -30.265625 C 44.585938 -29.703125 46.34375 -28.9375 47.84375 -27.96875 C 49.351562 -27 50.546875 -25.617188 51.421875 -23.828125 C 52.296875 -22.046875 52.734375 -19.617188 52.734375 -16.546875 Z M 34.59375 -33.84375 C 38.976562 -33.84375 42.0625 -34.875 43.84375 -36.9375 C 45.632812 -39.007812 46.53125 -41.832031 46.53125 -45.40625 C 46.53125 -49.039062 45.570312 -51.75 43.65625 -53.53125 C 41.75 -55.320312 38.757812 -56.21875 34.6875 -56.21875 L 14.1875 -56.21875 L 14.1875 -33.84375 Z M 34.59375 -33.84375 "/></g></g></g><g fill="#000000" fill-opacity="1"><g transform="translate(1096.007745, 706.380735)"><g><path d="M 28.203125 1.5 C 22.929688 1.5 18.539062 0.390625 15.03125 -1.828125 C 11.53125 -4.054688 8.898438 -7.066406 7.140625 -10.859375 C 5.390625 -14.648438 4.515625 -18.894531 4.515625 -23.59375 C 4.515625 -28.289062 5.390625 -32.519531 7.140625 -36.28125 C 8.898438 -40.039062 11.53125 -43.015625 15.03125 -45.203125 C 18.539062 -47.398438 22.929688 -48.5 28.203125 -48.5 C 33.460938 -48.5 37.832031 -47.382812 41.3125 -45.15625 C 44.789062 -42.9375 47.40625 -39.945312 49.15625 -36.1875 C 50.914062 -32.425781 51.796875 -28.226562 51.796875 -23.59375 C 51.796875 -18.894531 50.914062 -14.648438 49.15625 -10.859375 C 47.40625 -7.066406 44.789062 -4.054688 41.3125 -1.828125 C 37.832031 0.390625 33.460938 1.5 28.203125 1.5 Z M 12.125 -23.5 C 12.125 -16.914062 13.46875 -12.117188 16.15625 -9.109375 C 18.851562 -6.109375 22.867188 -4.609375 28.203125 -4.609375 C 33.523438 -4.609375 37.519531 -6.109375 40.1875 -9.109375 C 42.851562 -12.117188 44.1875 -16.914062 44.1875 -23.5 C 44.1875 -30.144531 42.851562 -34.953125 40.1875 -37.921875 C 37.519531 -40.898438 33.523438 -42.390625 28.203125 -42.390625 C 22.867188 -42.390625 18.851562 -40.898438 16.15625 -37.921875 C 13.46875 -34.953125 12.125 -30.144531 12.125 -23.5 Z M 12.125 -23.5 "/></g></g></g><g fill="#000000" fill-opacity="1"><g transform="translate(1151.183414, 706.380735)"><g><path d="M 28.203125 1.5 C 22.929688 1.5 18.539062 0.390625 15.03125 -1.828125 C 11.53125 -4.054688 8.898438 -7.066406 7.140625 -10.859375 C 5.390625 -14.648438 4.515625 -18.894531 4.515625 -23.59375 C 4.515625 -28.289062 5.390625 -32.519531 7.140625 -36.28125 C 8.898438 -40.039062 11.53125 -43.015625 15.03125 -45.203125 C 18.539062 -47.398438 22.929688 -48.5 28.203125 -48.5 C 33.460938 -48.5 37.832031 -47.382812 41.3125 -45.15625 C 44.789062 -42.9375 47.40625 -39.945312 49.15625 -36.1875 C 50.914062 -32.425781 51.796875 -28.226562 51.796875 -23.59375 C 51.796875 -18.894531 50.914062 -14.648438 49.15625 -10.859375 C 47.40625 -7.066406 44.789062 -4.054688 41.3125 -1.828125 C 37.832031 0.390625 33.460938 1.5 28.203125 1.5 Z M 12.125 -23.5 C 12.125 -16.914062 13.46875 -12.117188 16.15625 -9.109375 C 18.851562 -6.109375 22.867188 -4.609375 28.203125 -4.609375 C 33.523438 -4.609375 37.519531 -6.109375 40.1875 -9.109375 C 42.851562 -12.117188 44.1875 -16.914062 44.1875 -23.5 C 44.1875 -30.144531 42.851562 -34.953125 40.1875 -37.921875 C 37.519531 -40.898438 33.523438 -42.390625 28.203125 -42.390625 C 22.867188 -42.390625 18.851562 -40.898438 16.15625 -37.921875 C 13.46875 -34.953125 12.125 -30.144531 12.125 -23.5 Z M 12.125 -23.5 "/></g></g></g><g fill="#000000" fill-opacity="1"><g transform="translate(1205.983077, 706.380735)"><g><path d="M 64.484375 -48.5 C 75.078125 -48.5 80.375 -42.421875 80.375 -30.265625 L 80.375 0 L 72.84375 0 L 72.84375 -29.421875 C 72.84375 -34.179688 71.914062 -37.5 70.0625 -39.375 C 68.21875 -41.257812 65.578125 -42.203125 62.140625 -42.203125 C 56.992188 -42.203125 53.226562 -40.179688 50.84375 -36.140625 C 48.46875 -32.097656 47.28125 -26.035156 47.28125 -17.953125 L 47.28125 0 L 39.953125 0 L 39.953125 -29.421875 C 39.953125 -34.179688 39.007812 -37.5 37.125 -39.375 C 35.25 -41.257812 32.585938 -42.203125 29.140625 -42.203125 C 24.128906 -42.203125 20.414062 -40.179688 18 -36.140625 C 15.582031 -32.097656 14.375 -26.035156 14.375 -17.953125 L 14.375 0 L 6.859375 0 L 6.859375 -47 L 14.375 -47 L 14.375 -35.4375 C 15.757812 -39.507812 17.828125 -42.703125 20.578125 -45.015625 C 23.335938 -47.335938 26.972656 -48.5 31.484375 -48.5 C 40.453125 -48.5 45.59375 -44.082031 46.90625 -35.25 C 48.28125 -39.382812 50.378906 -42.625 53.203125 -44.96875 C 56.023438 -47.320312 59.785156 -48.5 64.484375 -48.5 Z M 64.484375 -48.5 "/></g></g></g><path stroke-linecap="butt" transform="matrix(0.75, 0, 0, 0.75, 838.426377, 745.499916)" fill="none" stroke-linejoin="miter" d="M -0.000794511 3.000113 L 639.999261 3.000113 " stroke="#000000" stroke-width="6" stroke-opacity="1" stroke-miterlimit="4"/></svg>