<svg xmlns="http://www.w3.org/2000/svg" width="512" height="512" viewBox="157 537 280 280">
  <rect x="157" y="537" width="280" height="280" rx="40" fill="#111111"/>
  <path fill="#ffffff" fill-rule="evenodd" d="M 198.109 749.75 L 396.609 749.75 C 405.727 749.75 413.145 742.344 413.145 733.246 L 413.145 648.324 C 413.145 639.227 405.727 631.820 396.609 631.820 L 368.258 631.820 C 361.750 631.820 356.438 626.520 356.438 620.027 C 356.438 610.930 349.020 603.523 339.902 603.523 L 254.813 603.523 C 245.699 603.523 238.281 610.930 238.281 620.027 C 238.281 626.520 232.969 631.820 226.461 631.820 L 198.109 631.820 C 188.992 631.820 181.574 639.227 181.574 648.324 L 181.574 733.246 C 181.574 742.344 188.992 749.75 198.109 749.75 Z M 198.109 745.043 L 396.609 745.043 C 403.117 745.043 408.430 739.742 408.430 733.246 L 408.430 648.324 C 408.430 641.828 403.117 636.527 396.609 636.527 L 368.289 636.527 C 359.172 636.527 351.754 629.125 351.754 620.027 C 351.754 613.531 346.441 608.230 339.934 608.230 L 254.844 608.230 C 248.340 608.230 243.027 613.531 243.027 620.027 C 243.027 629.125 235.609 636.527 226.492 636.527 L 198.109 636.527 C 191.602 636.527 186.289 641.828 186.289 648.324 L 186.289 733.246 C 186.289 739.742 191.602 745.043 198.109 745.043 Z M 336.195 690.078 A 38.82 38.82 0 0 1 258.555 690.078 A 38.82 38.82 0 0 1 336.195 690.078 Z M 331.449 690.078 A 34.074 34.074 0 0 1 263.301 690.078 A 34.074 34.074 0 0 1 331.449 690.078 Z M 235.609 660.465 A 9.148 9.148 0 0 1 217.313 660.465 A 9.148 9.148 0 0 1 235.609 660.465 Z M 230.895 660.465 A 4.403 4.403 0 0 1 222.089 660.465 A 4.403 4.403 0 0 1 230.895 660.465 Z"/>
</svg>
